<svg xmlns="http://www.w3.org/2000/svg" viewBox="0 0 512 512" width="512" height="512">
  <defs>
    <linearGradient id="goldGrad" x1="20%" y1="0%" x2="80%" y2="100%">
      <stop offset="0%"   stop-color="#F5D78E"/>
      <stop offset="25%"  stop-color="#D4A843"/>
      <stop offset="50%"  stop-color="#F0C860"/>
      <stop offset="75%"  stop-color="#C8963C"/>
      <stop offset="100%" stop-color="#9A6E28"/>
    </linearGradient>
    <filter id="roughness" x="0%" y="0%" width="100%" height="100%">
      <feTurbulence type="fractalNoise" baseFrequency="0.65" numOctaves="3" stitchTiles="stitch" result="noiseOut"/>
      <feColorMatrix type="saturate" values="0" in="noiseOut" result="grayNoise"/>
      <feBlend in="SourceGraphic" in2="grayNoise" mode="multiply" result="blended"/>
      <feComposite in="blended" in2="SourceGraphic" operator="in"/>
    </filter>
  </defs>
  <path d="M 430.0 12.0 L 395.0 17.0 L 333.0 55.0 L 140.0 248.0 L 174.0 67.0 L 160.0 54.0 L 134.0 52.0 L 66.0 78.0 L 80.0 87.0 L 139.0 74.0 L 144.0 86.0 L 102.0 258.0 L 57.0 385.0 L 17.0 436.0 L 49.0 442.0 L 65.0 432.0 L 126.0 281.0 L 157.0 259.0 L 192.0 258.0 L 223.0 288.0 L 244.0 415.0 L 271.0 496.0 L 296.0 502.0 L 317.0 485.0 L 442.0 299.0 L 474.0 228.0 L 475.0 173.0 L 440.0 151.0 L 403.0 154.0 L 367.0 173.0 L 379.0 183.0 L 434.0 166.0 L 448.0 177.0 L 448.0 200.0 L 418.0 281.0 L 298.0 473.0 L 279.0 425.0 L 254.0 278.0 L 227.0 249.0 L 182.0 239.0 L 323.0 92.0 Z" fill="url(#goldGrad)" filter="url(#roughness)" fill-rule="nonzero"/>
</svg>